<svg xmlns="http://www.w3.org/2000/svg" data-name="Layer 1" viewBox="0 0 100 125" x="0px" y="0px"><title>Artboard 28</title><path d="M34,81A15,15,0,0,0,49,66V63H43v3a9,9,0,0,1-18,0V34a9,9,0,0,1,18,0v3h6V34a15,15,0,0,0-30,0V66A15,15,0,0,0,34,81Z"/><path d="M80.12,47.88,66,33.76,61.76,38l9,9H43v6H70.76l-9,9L66,66.24,80.12,52.12A3,3,0,0,0,80.12,47.88Z"/><text x="0" y="115" fill="#000000" font-size="5px" font-weight="bold" font-family="'Helvetica Neue', Helvetica, Arial-Unicode, Arial, Sans-serif">Created by Gregor Cresnar</text><text x="0" y="120" fill="#000000" font-size="5px" font-weight="bold" font-family="'Helvetica Neue', Helvetica, Arial-Unicode, Arial, Sans-serif">from the Noun Project</text></svg>